<svg width="24" height="24" viewBox="0 0 24 24" fill="none" xmlns="http://www.w3.org/2000/svg">
<path d="M17.875 7.73452C17.875 6.14273 16.6136 4.8483 15.0625 4.8483C13.5114 4.8483 12.25 6.14273 12.25 7.73452C12.25 8.07228 12.31 8.39501 12.4141 8.6966H2.875V2.92415H4.75V5.81037H6.625V1H1V16.3932C1 17.9552 1.91324 19.2996 3.21855 19.9023L1.57518 22.4327L3.13524 23.5L5.25148 20.2415H19.2485L21.3652 23.4995L22.9253 22.4322L21.2819 19.9018C22.5868 19.2996 23.5 17.9552 23.5 16.3932V8.6966H17.7109C17.815 8.39501 17.875 8.07228 17.875 7.73452ZM14.125 7.73452C14.125 7.20392 14.5455 6.77245 15.0625 6.77245C15.5795 6.77245 16 7.20392 16 7.73452C16 8.26512 15.5795 8.6966 15.0625 8.6966C14.5455 8.6966 14.125 8.26512 14.125 7.73452ZM21.625 16.3932C21.625 17.4544 20.7841 18.3173 19.75 18.3173H4.75C3.71591 18.3173 2.875 17.4544 2.875 16.3932V14.469H21.625V16.3932ZM21.625 12.5449H2.875V10.6207H21.625V12.5449Z" fill="#A0A0A0"/>
<path d="M20.6875 1C19.1364 1 17.875 2.29443 17.875 3.88622C17.875 5.47801 19.1364 6.77245 20.6875 6.77245C22.2386 6.77245 23.5 5.47801 23.5 3.88622C23.5 2.29443 22.2386 1 20.6875 1ZM20.6875 4.8483C20.1705 4.8483 19.75 4.41682 19.75 3.88622C19.75 3.35563 20.1705 2.92415 20.6875 2.92415C21.2045 2.92415 21.625 3.35563 21.625 3.88622C21.625 4.41682 21.2045 4.8483 20.6875 4.8483Z" fill="#A0A0A0"/>
</svg>
