<svg width="24" height="24" viewBox="0 0 24 24" fill="none" xmlns="http://www.w3.org/2000/svg">
<g clip-path="url(#clip0_5835_22812)">
<path d="M23.9253 15.1729C24.0633 14.8969 24.0061 14.5599 23.7768 14.3454C23.923 13.5847 23.9995 12.7858 23.9995 11.9993C23.9995 5.39148 18.6067 -0.000366211 11.9999 -0.000366211C5.39212 -0.000413086 0.000227085 5.39232 0.000227085 11.9992C0.000227085 12.7857 0.0767271 13.5847 0.222883 14.3454C-0.00633541 14.5599 -0.0635698 14.8969 0.0744302 15.1729C0.41854 15.8611 0.894602 16.4696 1.47234 16.9678H0.703352C0.181915 16.9678 -0.159195 17.5179 0.0744771 17.9853C0.918649 19.6738 2.55131 20.8728 4.47543 21.1336C5.51348 22.9072 7.41463 23.9988 9.47254 23.9988H14.5272C16.5823 23.9988 18.4848 22.9096 19.5243 21.1336C21.3872 20.8811 23.0535 19.7289 23.9253 17.9853C24.0343 17.7673 24.0226 17.5085 23.8945 17.3012C23.7664 17.0939 23.5401 16.9677 23.2964 16.9677H22.5274C23.1051 16.4697 23.5812 15.8611 23.9253 15.1729ZM14.5272 22.5926H9.47254C8.22281 22.5926 7.06752 22.0639 6.25157 21.1771H17.7481C16.9322 22.0639 15.7769 22.5926 14.5272 22.5926ZM18.7458 19.7802H5.25393C4.0041 19.7802 2.84873 19.2516 2.03273 18.3647C2.83331 18.3647 21.0421 18.3647 21.967 18.3647C21.1511 19.2516 19.9956 19.7802 18.7458 19.7802ZM18.7458 16.9678H5.25393C4.0041 16.9678 2.84873 16.4392 2.03273 15.5522C2.29054 15.5522 21.3992 15.5522 21.967 15.5522C21.1511 16.4392 19.9956 16.9678 18.7458 16.9678ZM7.07816 11.9992C7.07816 9.25951 9.28607 7.0306 11.9999 7.0306C14.7137 7.0306 16.9216 9.25946 16.9216 11.9992C16.9216 12.7454 16.7534 13.497 16.444 14.1554H7.55577C7.24645 13.497 7.07816 12.7454 7.07816 11.9992ZM22.3812 14.1554H17.9599C18.1996 13.4688 18.3278 12.7311 18.3278 11.9992C18.3278 8.50806 15.4955 5.62435 11.9999 5.62435C8.50916 5.62435 5.67196 8.5036 5.67196 11.9992C5.67196 12.7311 5.80021 13.4688 6.03988 14.1554H1.61859C1.47941 13.4598 1.40648 12.7243 1.40648 11.9992C1.40648 6.15793 6.15867 1.40574 11.9999 1.40574C17.8411 1.40574 22.5933 6.15798 22.5933 11.9992C22.5933 12.7243 22.5204 13.4598 22.3812 14.1554Z" fill="#A0A0A0"/>
</g>
<defs>
<clipPath id="clip0_5835_22812">
<rect width="24" height="24" fill="white"/>
</clipPath>
</defs>
</svg>
