<svg width="24" height="24" viewBox="0 0 24 24" fill="none" xmlns="http://www.w3.org/2000/svg">
<path d="M22.7812 11.0738V4.17492C22.7812 2.85547 21.7077 1.78174 20.388 1.78174H3.61211C2.29229 1.78174 1.21875 2.85547 1.21875 4.17492V11.0738C0.506103 11.3536 0 12.0477 0 12.8583V14.9649C0 15.7755 0.506103 16.4697 1.21875 16.7495V18.1623C1.21875 19.2192 2.07861 20.0789 3.13549 20.0789H3.479L3.48321 21.4906C3.48431 21.8783 3.79888 22.1915 4.18615 22.1915H4.18835C4.57671 22.1905 4.89055 21.8748 4.88946 21.4864L4.88524 20.0789H19.1125L19.1167 21.456C19.1178 21.8436 19.4324 22.1571 19.8197 22.1571H19.8219C20.2102 22.1558 20.5241 21.8402 20.523 21.4518L20.5188 20.0789H20.8646C21.9213 20.0789 22.7812 19.2192 22.7812 18.1623V16.7495C23.4938 16.4697 24 15.7755 24 14.9649V12.8583C24 12.0477 23.4938 11.3536 22.7812 11.0738V11.0738ZM2.62499 4.17492C2.62499 3.63073 3.06774 3.18799 3.61211 3.18799H20.388C20.9322 3.18799 21.375 3.63073 21.375 4.17492V10.9416H18.7377L19.1698 10.5096C19.8165 9.8629 19.8165 8.81059 19.1698 8.16405L17.352 6.34618C16.7054 5.69964 15.6531 5.69946 15.0064 6.34618L13.1887 8.16405C12.5405 8.81224 12.5403 9.86125 13.1887 10.5096L13.6206 10.9416H10.3795L10.8114 10.5096C11.4582 9.8629 11.4582 8.81059 10.8114 8.16405L8.99376 6.34618C8.34703 5.69964 7.29472 5.69946 6.648 6.34618C4.87737 8.11717 4.34453 8.42058 4.34453 9.33684C4.34453 11.2398 7.19914 10.9416 2.62499 10.9416V4.17492ZM18.1754 9.51537L16.749 10.9418H15.6092L14.183 9.51537C14.1185 9.4511 14.109 9.37584 14.109 9.33684C14.109 9.29784 14.1185 9.22276 14.183 9.15831L16.0006 7.34063C16.0992 7.2423 16.2592 7.2423 16.3575 7.34063L18.1752 9.15831C18.2737 9.25682 18.2737 9.41685 18.1754 9.51537V9.51537ZM9.817 9.51537L8.39061 10.9418H7.25096L5.82457 9.51537C5.7603 9.4511 5.7506 9.37584 5.7506 9.33684C5.7506 9.29784 5.7603 9.22276 5.82457 9.15831L7.64226 7.34063C7.74077 7.2423 7.9008 7.2423 7.99913 7.34063L9.817 9.15831C9.91532 9.25682 9.91532 9.41685 9.817 9.51537ZM21.375 18.1623C21.375 18.4438 21.1459 18.6728 20.8645 18.6728H3.13549C2.85406 18.6728 2.62499 18.4438 2.62499 18.1623V16.8817H21.375V18.1623ZM22.5937 14.9649C22.5937 15.2464 22.3646 15.4754 22.0832 15.4754H1.91674C1.63531 15.4754 1.40625 15.2464 1.40625 14.9649V12.8583C1.40625 12.5769 1.63531 12.348 1.91674 12.348H22.0834C22.3648 12.348 22.5937 12.5769 22.5937 12.8583V14.9649Z" fill="#A0A0A0"/>
</svg>
