<svg width="24" height="24" viewBox="0 0 24 24" fill="none" xmlns="http://www.w3.org/2000/svg">
<path d="M12.0098 4.62976C12.0098 2.07691 9.93293 0 7.38007 0C4.82722 0 2.75031 2.07691 2.75031 4.62976V13.0278C1.56794 14.2425 0.904592 15.8803 0.917168 17.5856C0.943069 21.0929 3.80843 24 7.38111 24C10.9327 23.9999 13.8431 21.1275 13.8431 17.5369C13.8431 15.8503 13.1797 14.2301 12.0098 13.0278V4.62976H12.0098ZM7.31462 22.1226C4.84027 22.0883 2.81235 20.0467 2.79409 17.5717C2.78438 16.2591 3.33915 15.0028 4.31614 14.1248C4.5142 13.9468 4.62728 13.6931 4.62728 13.4268V4.62976C4.62724 3.11185 5.86216 1.87692 7.38007 1.87692C8.89799 1.87692 10.1329 3.11185 10.1329 4.62976V13.4268C10.1329 13.6931 10.246 13.9469 10.4441 14.1248C11.4114 14.9941 11.9662 16.2378 11.9662 17.5369C11.9662 20.0894 9.8846 22.1574 7.31462 22.1226ZM9.24137 17.5492C9.24137 18.0676 8.82122 18.4877 8.30291 18.4877H6.45729C5.93897 18.4877 5.51882 18.0676 5.51882 17.5492C5.51882 17.0362 5.93062 16.62 6.44166 16.6116V4.62976C6.44166 4.11145 6.86181 3.6913 7.38012 3.6913C7.89843 3.6913 8.31858 4.11145 8.31858 4.62976V16.6116C8.82953 16.62 9.24137 17.0362 9.24137 17.5492ZM23.0837 4.62976C23.0837 5.14808 22.6635 5.56822 22.1452 5.56822H14.7626C14.2443 5.56822 13.8242 5.14808 13.8242 4.62976C13.8242 4.11145 14.2443 3.6913 14.7626 3.6913H22.1452C22.6635 3.6913 23.0837 4.11145 23.0837 4.62976ZM21.238 8.32102C21.238 8.83933 20.8179 9.25948 20.2996 9.25948H14.7626C14.2443 9.25948 13.8242 8.83933 13.8242 8.32102C13.8242 7.8027 14.2443 7.38255 14.7626 7.38255H20.2996C20.8179 7.38255 21.238 7.80275 21.238 8.32102ZM19.3924 12C19.3924 12.5183 18.9722 12.9384 18.4539 12.9384H14.7626C14.2443 12.9384 13.8242 12.5183 13.8242 12C13.8242 11.4817 14.2443 11.0615 14.7626 11.0615H18.4539C18.9722 11.0615 19.3924 11.4817 19.3924 12Z" fill="#A0A0A0"/>
</svg>
