<svg width="24" height="24" viewBox="0 0 24 24" fill="none" xmlns="http://www.w3.org/2000/svg">
<path d="M23.9869 19.5014C23.9861 19.4944 23.9852 19.4874 23.9842 19.4803L22.5937 9.841V5.67186C22.5937 3.73335 21.0407 2.15625 19.1021 2.15625H6.3281C5.165 2.15625 4.21873 3.10251 4.21873 4.26562C4.21873 5.42872 5.165 6.37498 6.3281 6.37498H18.3749V9.18747H10.5937V9.18752C4.75231 9.18752 0 13.9188 0 19.7344V21.1406C0 21.5289 0.314811 21.8437 0.703122 21.8437H21.8904C23.147 21.8437 24.1255 20.7496 23.9869 19.5014ZM6.3281 4.96879C5.9404 4.96879 5.62498 4.65337 5.62498 4.26566C5.62498 3.87796 5.9404 3.56254 6.3281 3.56254H19.1021C20.2652 3.56254 21.1874 4.5088 21.1874 5.67191V9.18752H19.7812V5.67191C19.7812 5.28355 19.4905 4.96879 19.1021 4.96879H6.3281ZM21.8904 20.4375H1.40624V19.7344C1.40624 14.6942 5.52771 10.5938 10.5937 10.5938H21.2801L22.5901 19.6655C22.631 20.0782 22.308 20.4375 21.8904 20.4375Z" fill="#A0A0A0"/>
</svg>
