<svg width="24" height="24" viewBox="0 0 24 24" fill="none" xmlns="http://www.w3.org/2000/svg">
<path d="M12.007 6.78333C8.16785 6.78333 5.04443 9.90674 5.04443 13.7459C5.04443 17.5851 8.16785 20.7085 12.007 20.7085C15.8462 20.7085 18.9696 17.5851 18.9696 13.7459C18.9696 9.90674 15.8464 6.78333 12.007 6.78333ZM12.007 19.3022C9.22894 19.3022 6.92072 17.2529 6.51422 14.5867C7.41711 14.922 8.26361 15.8774 9.90442 14.7737C12.2341 13.2065 12.8076 16.4604 15.3152 14.7737C16.0551 14.2758 16.663 14.1345 17.5361 14.2983C17.2579 17.1037 14.8845 19.3022 12.007 19.3022ZM13.2452 13.6069C11.8955 12.6991 10.4689 12.6991 9.11963 13.6069C8.07098 14.3121 8.02301 13.4416 6.48621 13.119C6.79877 10.3493 9.15533 8.18958 12.007 8.18958C14.7732 8.18958 17.0734 10.2213 17.4943 12.8707C14.7538 12.5171 14.5472 14.4829 13.2452 13.6069Z" fill="#A0A0A0"/>
<path d="M18.6515 0H5.34851C3.71759 0 2.39062 1.32697 2.39062 2.95789V21.0421C2.39062 22.673 3.71759 24 5.34851 24H18.6515C20.2824 24 21.6094 22.673 21.6094 21.0421V2.95789C21.6094 1.32697 20.2824 0 18.6515 0ZM3.79688 2.95789C3.79688 2.10223 4.49304 1.40625 5.34851 1.40625H8.84912V2.44281C8.84912 3.22943 8.20917 3.86957 7.42236 3.86957H3.79688V2.95789ZM20.2031 21.0421C20.2031 21.8976 19.5071 22.5938 18.6515 22.5938H5.34851C4.49304 22.5938 3.79688 21.8976 3.79688 21.0421V5.27582H7.42236C8.98444 5.27582 10.2554 4.00488 10.2554 2.44281V1.40625H18.6515C19.5071 1.40625 20.2031 2.10223 20.2031 2.95789V21.0421Z" fill="#A0A0A0"/>
<path d="M13.9385 3.85657H16.0427C16.4311 3.85657 16.7458 3.54181 16.7458 3.15344C16.7458 2.76526 16.4311 2.45032 16.0427 2.45032H13.9385C13.5501 2.45032 13.2354 2.76526 13.2354 3.15344C13.2354 3.54181 13.5501 3.85657 13.9385 3.85657Z" fill="#A0A0A0"/>
<path d="M19.0557 3.15356C19.0557 3.54193 18.7409 3.85669 18.3525 3.85669C17.9642 3.85669 17.6494 3.54193 17.6494 3.15356C17.6494 2.7652 17.9642 2.45044 18.3525 2.45044C18.7409 2.45044 19.0557 2.7652 19.0557 3.15356Z" fill="#A0A0A0"/>
</svg>
