<svg width="24" height="24" viewBox="0 0 24 24" fill="none" xmlns="http://www.w3.org/2000/svg">
<g clip-path="url(#clip0_5835_22822)">
<path d="M20.4853 3.51471C18.2188 1.24823 15.2053 0 12 0C8.79474 0 5.78119 1.24823 3.51471 3.51471C1.24823 5.78119 0 8.79474 0 12C0 15.2053 1.24823 18.2188 3.51471 20.4853C5.78119 22.7518 8.79474 24 12 24C15.2053 24 18.2188 22.7518 20.4853 20.4853C22.7518 18.2188 24 15.2053 24 12C24 8.79474 22.7518 5.78119 20.4853 3.51471V3.51471ZM12 22.5938C6.14429 22.5938 1.40625 17.8548 1.40625 12C1.40625 6.14429 6.1452 1.40625 12 1.40625C17.8557 1.40625 22.5938 6.1452 22.5938 12C22.5938 17.8557 17.8548 22.5938 12 22.5938V22.5938Z" fill="#A0A0A0"/>
<path d="M18.019 9.88956H11.0239L7.56299 6.42869C7.29529 6.16099 6.85913 6.13627 6.57916 6.39115C6.28015 6.66306 6.27191 7.12632 6.55463 7.40885L9.03516 9.88956H6.00439C4.83948 9.88956 3.89502 10.8338 3.89502 11.9989C3.89502 13.1638 4.83948 14.1083 6.00458 14.1083H13.2539L16.7309 17.5851C16.868 17.7224 17.048 17.7911 17.228 17.7911C17.4078 17.7911 17.5878 17.7224 17.7252 17.5851C17.9996 17.3106 17.9996 16.8655 17.7252 16.5908L15.2426 14.1083H18.019C19.184 14.1083 20.1284 13.1638 20.1284 11.9989C20.1284 10.8338 19.184 9.88956 18.019 9.88956V9.88956ZM5.30127 11.9989C5.30127 11.6106 5.61621 11.2958 6.00439 11.2958H10.4414L11.8477 12.7021H6.00439C5.61621 12.7021 5.30127 12.3871 5.30127 11.9989V11.9989ZM12.4301 11.2958H16.0329V12.7021H13.8364L12.4301 11.2958ZM18.019 12.7021H17.4391V11.2958H18.019C18.4074 11.2958 18.7222 11.6106 18.7222 11.9989C18.7222 12.3871 18.4074 12.7021 18.019 12.7021Z" fill="#A0A0A0"/>
</g>
<defs>
<clipPath id="clip0_5835_22822">
<rect width="24" height="24" fill="white"/>
</clipPath>
</defs>
</svg>
