<svg width="24" height="24" viewBox="0 0 24 24" fill="none" xmlns="http://www.w3.org/2000/svg">
<g clip-path="url(#clip0_5835_22831)">
<path d="M13.1972 5.82288H8.90625V18.1763H10.3125V14.2603H13.1972C15.4836 14.2603 17.3438 12.4002 17.3438 10.1138V9.96934C17.3438 7.68302 15.4836 5.82288 13.1972 5.82288ZM15.9375 10.1139C15.9375 11.6248 14.7082 12.8541 13.1972 12.8541H10.3125V7.22913H13.1972C14.7082 7.22913 15.9375 8.45842 15.9375 9.96939V10.1139Z" fill="#A0A0A0"/>
<path d="M20.4853 3.51469C18.2188 1.24819 15.2053 0 12 0C8.79469 0 5.78123 1.24819 3.51469 3.51469C1.24823 5.78123 0 8.79473 0 12C0 15.2053 1.24823 18.2188 3.51473 20.4853C5.78123 22.7518 8.79469 24 12 24C15.2053 24 18.2188 22.7518 20.4853 20.4853C22.7518 18.2188 24 15.2053 24 12C24 8.79473 22.7518 5.78123 20.4853 3.51469ZM19.491 19.491C17.49 21.4918 14.8297 22.5938 12 22.5938C9.1703 22.5938 6.51 21.4918 4.50909 19.4909C2.50819 17.49 1.40625 14.8297 1.40625 12C1.40625 9.17034 2.50819 6.51 4.50909 4.50905C6.51 2.50819 9.1703 1.40625 12 1.40625C14.8297 1.40625 17.49 2.50819 19.491 4.50905C21.4918 6.51 22.5938 9.17034 22.5938 12C22.5938 14.8297 21.4918 17.49 19.491 19.491Z" fill="#A0A0A0"/>
</g>
<defs>
<clipPath id="clip0_5835_22831">
<rect width="24" height="24" fill="white"/>
</clipPath>
</defs>
</svg>
