<svg width="24" height="24" viewBox="0 0 24 24" fill="none" xmlns="http://www.w3.org/2000/svg">
<g clip-path="url(#clip0_5835_22852)">
<path d="M14.5285 13.0044C13.9164 9.87948 9.91188 9.88955 9.30177 13.004C8.98738 14.6032 7.65694 14.5069 7.28688 16.1942C6.97157 17.6318 8.04182 18.6067 9.46987 18.6067C9.7339 18.6067 12.0639 18.074 13.7763 18.5352C14.4203 18.7088 15.436 18.577 16.05 17.9909C16.8329 17.2434 16.5429 16.1937 16.5381 16.1937C16.1679 14.5069 14.8409 14.6043 14.5285 13.0044ZM9.68447 17.1777C9.46034 17.2385 8.49794 17.2367 8.66054 16.4954C8.88722 15.4613 10.2719 15.3596 10.6817 13.2746C10.8981 12.1698 11.6276 12.0865 11.8416 12.0865C12.6447 12.0865 13.0119 12.577 13.1485 13.2743C13.5555 15.3596 14.9374 15.4596 15.1648 16.4954C15.4001 18.0257 12.7242 16.359 9.68447 17.1777Z" fill="#A0A0A0"/>
<path d="M9.7415 10.6355C11.2391 10.6355 12.1889 9.03172 11.7101 7.39036C11.0714 5.20116 8.54674 4.69634 7.56218 6.48143C6.60948 8.20848 7.88096 10.6355 9.7415 10.6355ZM8.79356 7.16075C9.40642 6.04985 10.9297 7.69743 10.2828 8.8693C9.66881 9.98148 8.1461 8.33427 8.79356 7.16075Z" fill="#A0A0A0"/>
<path d="M14.4678 10.6356C17.1549 10.6356 17.9594 6.1971 15.4066 5.4676C14.2442 5.13545 12.9213 5.93141 12.4961 7.3904C12.022 9.01583 12.9495 10.6356 14.4678 10.6356ZM13.8461 7.78389C14.1087 6.88301 15.0116 6.43147 15.413 7.15895C15.9031 8.04701 15.092 9.43038 14.3162 9.20864C13.8159 9.06581 13.687 8.32936 13.8461 7.78389Z" fill="#A0A0A0"/>
<path d="M8.52344 13.6267C9.38605 11.5732 7.34112 9.06538 5.38775 9.85456C3.03448 10.8052 4.07323 14.9046 6.6596 14.9046C7.42279 14.9046 8.16693 14.475 8.52344 13.6267ZM7.22686 13.0822C6.73742 14.2473 5.0426 12.7718 5.56243 11.5347C6.04363 10.3887 7.75457 11.8261 7.22686 13.0822Z" fill="#A0A0A0"/>
<path d="M19.7335 11.1653C19.2309 9.96961 17.9122 9.54572 16.7681 10.184C14.5286 11.4334 14.9098 15.0799 17.3392 15.0799C19.1287 15.0801 20.454 12.879 19.7335 11.1653ZM18.3972 12.7986C18.0394 13.6667 17.0926 14.0181 16.7731 13.2595C16.4332 12.4527 17.114 11.2922 17.8627 11.2922C18.5049 11.2922 18.6627 12.1544 18.3972 12.7986Z" fill="#A0A0A0"/>
<path d="M20.4853 3.51471C18.2188 1.24823 15.2053 0 12 0C8.79474 0 5.78119 1.24823 3.51471 3.51471C1.24823 5.78119 0 8.79474 0 12C0 15.2053 1.24823 18.2188 3.51471 20.4853C5.78119 22.7518 8.79474 24 12 24C15.2053 24 18.2188 22.7518 20.4853 20.4853C22.7518 18.2188 24 15.2053 24 12C24 8.79474 22.7518 5.78119 20.4853 3.51471ZM19.4908 19.4908C15.351 23.6309 8.64972 23.6316 4.50916 19.4908C0.369141 15.351 0.368408 8.64972 4.50916 4.50916C8.64899 0.369141 15.3505 0.368408 19.4908 4.50916C23.6309 8.64899 23.6316 15.3503 19.4908 19.4908Z" fill="#A0A0A0"/>
</g>
<defs>
<clipPath id="clip0_5835_22852">
<rect width="24" height="24" fill="white"/>
</clipPath>
</defs>
</svg>
