<svg width="24" height="24" viewBox="0 0 24 24" fill="none" xmlns="http://www.w3.org/2000/svg">
<g clip-path="url(#clip0_2930_6744)">
<path d="M9.37548 8.41789L8.3335 9.36224C9.07168 10.2819 10.0711 11.043 11.2969 11.2867V12.7133H12.7031V11.3838C14.042 11.2923 15.4003 10.2823 15.6281 8.94013C15.946 7.11781 14.348 6.02699 12.7031 5.52139V2.75952C13.4136 2.83311 14.2139 3.40241 14.7918 3.89769L15.6642 2.79472C14.8558 2.0442 13.5415 1.36344 12.7031 1.3415V0.00256348H11.2968V1.42058C10.1917 1.6573 9.2829 2.53536 9.1352 3.61241C9.00076 5.1583 9.72301 5.92555 11.2968 6.47225V9.83642C10.0641 9.50473 9.37548 8.41789 9.37548 8.41789ZM10.5261 3.81941C10.5873 3.40799 10.8707 3.07208 11.2968 2.89339V4.94675C10.5089 4.68913 10.4684 4.20674 10.5261 3.81941ZM14.2437 8.69291C14.2437 9.26122 13.5807 9.84261 12.7031 9.96936V7.02674C12.7558 7.04647 14.2437 7.49909 14.2437 8.69291Z" fill="#A0A0A0"/>
<path d="M21.5792 19.3637V16.7899L21.8903 16.9766L22.6139 15.7707L17.6484 12.7915L12.683 15.7708L13.4065 16.9766L13.7176 16.79V19.3638H10.2824V16.79L10.5935 16.9766L11.3171 15.7708L6.35156 12.7915L1.38609 15.7708L2.10966 16.9766L2.42077 16.79V19.3638H0V20.77H24V19.3638H21.5792V19.3637ZM7.05469 19.3637V17.6461H5.64844V19.3637H3.82702V15.9462L6.35156 14.4314L8.87611 15.9462V19.3637H7.05469ZM18.3516 19.3637V17.6461H16.9453V19.3637H15.1239V15.9462L17.6484 14.4314L20.173 15.9462V19.3637H18.3516Z" fill="#A0A0A0"/>
<path d="M0 22.5912H24V23.9974H0V22.5912Z" fill="#A0A0A0"/>
</g>
<defs>
<clipPath id="clip0_2930_6744">
<rect width="24" height="24" fill="white"/>
</clipPath>
</defs>
</svg>
