<svg width="24" height="24" viewBox="0 0 24 24" fill="none" xmlns="http://www.w3.org/2000/svg">
<path d="M22.7812 11.0752V4.17492C22.7812 2.85547 21.7077 1.78174 20.3878 1.78174H3.61193C2.29229 1.78174 1.21875 2.85547 1.21875 4.17492V11.0751C0.505919 11.3561 0 12.0512 0 12.8625V14.9607C0 15.7721 0.505919 16.4671 1.21875 16.7482V18.1581C1.21875 19.2172 2.08044 20.0789 3.1397 20.0789H3.47881L3.48303 21.4906C3.48431 21.8783 3.79888 22.1915 4.18615 22.1915H4.18835C4.57671 22.1905 4.89037 21.8748 4.88927 21.4864L4.88506 20.0789H19.1125L19.1167 21.456C19.1178 21.8436 19.4324 22.1571 19.8197 22.1571H19.8219C20.2102 22.1558 20.5241 21.8402 20.523 21.4518L20.5188 20.0789H20.8602C21.9195 20.0789 22.7812 19.2172 22.7812 18.1581V16.7482C23.494 16.4671 24 15.7721 24 14.9607V12.8625C24 12.0512 23.494 11.3561 22.7812 11.0752ZM22.5937 12.8625V14.9607C22.5937 15.2445 22.3628 15.4754 22.079 15.4754H1.92096C1.63714 15.4754 1.40625 15.2445 1.40625 14.9607V12.8625C1.40625 12.5787 1.63714 12.348 1.92096 12.348H22.079C22.3628 12.348 22.5937 12.5787 22.5937 12.8625ZM10.0292 9.54082C9.95579 9.46739 9.9448 9.38152 9.9448 9.33684C9.9448 9.29216 9.95579 9.20628 10.0292 9.13286L11.796 7.36608C11.8696 7.29265 11.9553 7.28167 12 7.28167C12.0447 7.28167 12.1303 7.29265 12.204 7.36608L13.9706 9.13286C14.0442 9.20628 14.0551 9.29216 14.0551 9.33684C14.0551 9.38152 14.0442 9.46721 13.9706 9.54082L12.5698 10.9418H11.4302L10.0292 9.54082ZM2.62499 4.17492C2.62499 3.63073 3.06774 3.18799 3.61193 3.18799H20.3878C20.9322 3.18799 21.375 3.63073 21.375 4.17492V10.9416H14.5585L14.965 10.5351C15.6273 9.87297 15.6275 8.80089 14.965 8.1386C13.1854 6.359 12.9146 5.87542 12 5.87542C11.079 5.87542 10.8012 6.37218 9.03496 8.13842C8.37266 8.80071 8.37248 9.87279 9.03496 10.5351L9.44145 10.9416H2.62499V4.17492ZM20.8602 18.6726H3.1397C2.85589 18.6726 2.62499 18.4417 2.62499 18.1581V16.8817H21.375V18.1581C21.375 18.4417 21.1441 18.6726 20.8602 18.6726Z" fill="#A0A0A0"/>
</svg>
