<svg width="24" height="24" viewBox="0 0 24 24" fill="none" xmlns="http://www.w3.org/2000/svg">
<path d="M22.093 16.8813L19.6553 15.4739L21.7678 14.2283C22.1574 13.9985 22.287 13.4964 22.0573 13.1068C21.8275 12.7173 21.3255 12.5877 20.9358 12.8173L18.0258 14.5332L13.6383 11.9999L18.0251 9.46717L20.9359 11.1828C21.0664 11.2598 21.2097 11.2963 21.351 11.2963C21.6314 11.2963 21.9045 11.1521 22.0573 10.893C22.2869 10.5034 22.1572 10.0013 21.7676 9.77151L19.6548 8.52631L22.093 7.11861C22.4847 6.89246 22.6189 6.39156 22.3927 5.99986C22.1666 5.60805 21.6657 5.47385 21.274 5.70011L18.8363 7.10758L18.8142 4.65485C18.8101 4.20255 18.4391 3.83706 17.9878 3.84328C17.5355 3.84732 17.1721 4.21729 17.1763 4.66959L17.2067 8.04834L12.8194 10.5814V5.51567L15.7609 3.85322C16.1547 3.63067 16.2935 3.13108 16.071 2.7372C15.8484 2.34342 15.3487 2.20452 14.9549 2.42718L12.8194 3.63416V0.818997C12.8194 0.366692 12.4527 0 12.0004 0C11.5481 0 11.1814 0.366692 11.1814 0.818997V3.63416L9.04593 2.42729C8.65194 2.20463 8.15257 2.34342 7.92991 2.73731C7.70736 3.13108 7.84615 3.63078 8.23993 3.85333L11.1813 5.51578V10.5814L6.79401 8.04834L6.82448 4.66959C6.82863 4.21729 6.46521 3.84732 6.01291 3.84328C6.0104 3.84328 6.008 3.84328 6.00537 3.84328C5.55656 3.84328 5.19064 4.20506 5.1866 4.65496L5.16443 7.10758L2.72676 5.70011C2.33507 5.47385 1.83417 5.60816 1.60802 5.99986C1.38186 6.39156 1.51607 6.89246 1.90777 7.11861L4.34587 8.52631L2.23275 9.77173C1.84312 10.0014 1.71339 10.5035 1.94304 10.8932C2.09581 11.1523 2.36892 11.2965 2.64945 11.2965C2.79076 11.2965 2.93392 11.2599 3.06452 11.183L5.97567 9.46739L10.3625 12.0002L5.97491 14.5334L3.06452 12.8172C2.67511 12.5875 2.1728 12.7171 1.94304 13.1067C1.71328 13.4963 1.8429 13.9984 2.23253 14.2281L4.34532 15.4738L1.90766 16.8812C1.51596 17.1073 1.38175 17.6082 1.60791 17.9999C1.75958 18.2627 2.03488 18.4095 2.31792 18.4095C2.45682 18.4095 2.59769 18.3741 2.72666 18.2997L5.16432 16.8922L5.18649 19.345C5.19053 19.7948 5.55645 20.1567 6.00527 20.1567C6.00778 20.1567 6.01029 20.1567 6.0128 20.1566C6.4651 20.1526 6.82852 19.7826 6.82437 19.3303L6.7939 15.9514L11.1813 13.4183V18.4842L8.23993 20.1467C7.84615 20.3692 7.70736 20.8688 7.92991 21.2627C8.08049 21.5291 8.35797 21.6789 8.64364 21.6789C8.78014 21.6789 8.9186 21.6447 9.04593 21.5727L11.1814 20.3658V23.181C11.1814 23.6333 11.5481 24 12.0004 24C12.4527 24 12.8194 23.6333 12.8194 23.181V20.3658L14.9549 21.5727C15.0823 21.6447 15.2206 21.6789 15.3572 21.6789C15.6429 21.6789 15.9204 21.5291 16.071 21.2627C16.2935 20.8689 16.1547 20.3692 15.7609 20.1467L12.8194 18.4842V13.4184L17.2067 15.9514L17.1755 19.3302C17.1713 19.7825 17.5346 20.1526 17.9869 20.1567C17.9895 20.1568 17.992 20.1568 17.9946 20.1568C18.4433 20.1568 18.8092 19.795 18.8134 19.3454L18.8361 16.8922L21.2741 18.2998C21.4031 18.3743 21.5439 18.4096 21.6828 18.4096C21.9659 18.4096 22.2412 18.2627 22.3929 18C22.619 17.6083 22.4848 17.1074 22.093 16.8813Z" fill="#A0A0A0"/>
</svg>
