<svg width="24" height="24" viewBox="0 0 24 24" fill="none" xmlns="http://www.w3.org/2000/svg">
<path d="M22.1514 17.5839C21.8305 17.3571 21.3866 17.4334 21.1598 17.7543C21.1568 17.7585 20.8364 18.1861 20.2346 18.4619C19.3796 18.8537 18.3837 18.7577 17.2748 18.1763C17.2307 18.1532 17.1861 18.1302 17.1413 18.1073V5.07266C17.1413 3.06023 18.7786 1.42298 20.791 1.42298C21.184 1.42298 21.5025 1.10442 21.5025 0.711467C21.5025 0.318562 21.1839 0 20.791 0C17.9939 0 15.7183 2.27559 15.7183 5.07266V7.24555H4.58979V5.07266C4.58979 3.06028 6.22704 1.42303 8.23947 1.42303C8.63242 1.42303 8.95098 1.10447 8.95098 0.711514C8.95098 0.318562 8.63242 0 8.23947 0C5.4424 0 3.16681 2.27559 3.16681 5.07266V17.5545C2.76982 17.7092 2.36797 17.8794 1.96104 18.0667C1.60409 18.231 1.44795 18.6535 1.6122 19.0105C1.77655 19.3674 2.19912 19.5236 2.55607 19.3593C8.67775 16.5412 13.5797 17.8459 16.614 19.4366C17.5768 19.9413 18.423 20.1191 19.1378 20.1191C19.8284 20.1191 20.3963 19.9531 20.8274 19.7555C21.777 19.3202 22.2689 18.6505 22.3218 18.5755C22.5486 18.2546 22.4723 17.8107 22.1514 17.5839ZM15.7183 17.4573C12.9175 16.3306 9.11636 15.677 4.58979 17.0603V13.6845H15.7183V17.4573ZM15.7183 12.2615H4.58979V8.66858H15.7183V12.2615Z" fill="#A0A0A0"/>
<path d="M22.1514 21.4644C21.8305 21.2377 21.3865 21.3139 21.1597 21.6348C21.1567 21.639 20.8364 22.0665 20.2345 22.3424C19.3795 22.7343 18.3837 22.6381 17.2747 22.0568C13.9576 20.3178 8.60805 18.8871 1.96104 21.9472C1.60409 22.1114 1.44795 22.534 1.6122 22.891C1.77655 23.2479 2.19908 23.4041 2.55603 23.2398C8.6777 20.4217 13.5796 21.7264 16.6139 23.3171C17.5767 23.8218 18.423 23.9996 19.1378 23.9996C19.8283 23.9996 20.3962 23.8335 20.8274 23.636C21.777 23.2007 22.2689 22.531 22.3218 22.456C22.5486 22.1351 22.4723 21.6912 22.1514 21.4644Z" fill="#A0A0A0"/>
</svg>
