<svg width="24" height="24" viewBox="0 0 24 24" fill="none" xmlns="http://www.w3.org/2000/svg">
<path d="M21.7958 1.9248H20.7372V1.66388C20.7372 0.746521 19.9909 0 19.0734 0H1.69318C0.775818 0 0.0292969 0.746521 0.0292969 1.66388V10.4537C0.0292969 11.371 0.775818 12.1176 1.69318 12.1176H8.51917V16.439H5.04218V16.2667C5.04218 14.8766 3.91113 13.7457 2.521 13.7457C1.13104 13.7457 0 14.8766 0 16.2667V21.4788C0 22.869 1.13104 24 2.521 24C3.91113 24 5.04218 22.869 5.04218 21.479V21.3067H8.53729C11.4267 21.3067 13.7772 18.956 13.7772 16.0668V12.1176H19.0732C19.9907 12.1176 20.7372 11.371 20.7372 10.4537V10.0126H21.7958C23.011 10.0126 23.9998 9.0238 23.9998 7.80835V4.12921C24 2.91357 23.0112 1.9248 21.7958 1.9248ZM1.43555 10.4537V1.66388C1.43555 1.52179 1.55109 1.40625 1.69318 1.40625H8.51917V10.7113H1.69318C1.55109 10.7113 1.43555 10.5956 1.43555 10.4537ZM3.63593 21.479C3.63593 22.0937 3.13586 22.5938 2.521 22.5938C1.90631 22.5938 1.40625 22.0937 1.40625 21.479V16.2667C1.40625 15.652 1.90631 15.152 2.521 15.152C3.13586 15.152 3.63593 15.652 3.63593 16.2667V21.479ZM12.371 16.0668C12.371 18.1807 10.6512 19.9005 8.53748 19.9005H5.04218V17.8453H8.5882C9.32556 17.8453 9.92542 17.2454 9.92542 16.5081V12.1176H12.371V16.0668ZM19.331 10.4537C19.331 10.5956 19.2155 10.7113 19.0734 10.7113H9.92542V1.40625H19.0734C19.2155 1.40625 19.331 1.52179 19.331 1.66388V10.4537ZM22.5938 7.80835C22.5938 8.24835 22.2358 8.60614 21.7958 8.60614H20.7372V3.33105H21.7958C22.2358 3.33105 22.5938 3.68903 22.5938 4.12903V7.80835Z" fill="#A0A0A0"/>
</svg>
