<?xml version="1.0" encoding="UTF-8"?>
<!DOCTYPE svg PUBLIC "-//W3C//DTD SVG 1.1//EN" "http://www.w3.org/Graphics/SVG/1.1/DTD/svg11.dtd">
<!-- Creator: CorelDRAW -->
<svg xmlns="http://www.w3.org/2000/svg" xml:space="preserve" width="6.35mm" height="6.35mm" version="1.1" style="shape-rendering:geometricPrecision; text-rendering:geometricPrecision; image-rendering:optimizeQuality; fill-rule:evenodd; clip-rule:evenodd"
viewBox="0 0 395.36 395.36"
 xmlns:xlink="http://www.w3.org/1999/xlink"
 xmlns:xodm="http://www.corel.com/coreldraw/odm/2003">
 <defs>
  <style type="text/css">
   <![CDATA[
    .fil1 {fill:none}
    .fil0 {fill:#9C28B1;fill-rule:nonzero}
   ]]>
  </style>
   <clipPath id="id0">
    <path d="M-0 395.36l395.36 0 0 -395.36 -395.36 0 0 395.36z"/>
   </clipPath>
 </defs>
 <g id="Camada_x0020_1">
  <metadata id="CorelCorpID_0Corel-Layer"/>
  <g>
  </g>
  <g style="clip-path:url(#id0)">
   <g id="_2821553785120">
    <path class="fil0" d="M395.36 0l-395.36 0 0 235.84 53.17 0 0 53.17 106.34 0 0 106.34 76.33 0 0 -106.34 106.34 0 0 -53.17 53.17 0 0 -235.84zm-319.02 265.85l0 -30.01 83.17 0 0 30.01 -83.17 0zm106.34 106.34l0 -136.35 30.01 0 0 136.35 -30.01 0zm136.35 -106.34l-83.17 0 0 -30.01 83.17 0 0 30.01zm53.17 -53.17l-349.02 0 0 -189.52 349.02 0 0 189.52z"/>
    <polygon class="fil0" points="239.26,53.17 289.02,53.17 289.02,76.34 239.26,76.34 "/>
    <polygon class="fil0" points="239.26,106.34 315.6,106.34 315.6,129.5 239.26,129.5 "/>
    <polygon class="fil0" points="239.26,159.51 342.19,159.51 342.19,182.67 239.26,182.67 "/>
    <path class="fil0" d="M53.18 117.11l0 65.56 129.5 0 0 -65.56 5.12 3.08 11.92 -19.87 -81.8 -49.07 -81.8 49.07 11.92 19.87 5.12 -3.08zm106.34 -13.9l0 56.3 -30 0 0 -28.3 -23.16 0 0 28.3 -30.01 0 0 -56.3 41.59 -24.95 41.58 24.95z"/>
   </g>
  </g>
  <polygon class="fil1" points="-0,395.36 395.36,395.36 395.36,0 -0,0 "/>
 </g>
</svg>
