<?xml version="1.0" encoding="UTF-8"?>
<!DOCTYPE svg PUBLIC "-//W3C//DTD SVG 1.1//EN" "http://www.w3.org/Graphics/SVG/1.1/DTD/svg11.dtd">
<!-- Creator: CorelDRAW -->
<svg xmlns="http://www.w3.org/2000/svg" xml:space="preserve" width="6.35mm" height="6.35mm" version="1.1" style="shape-rendering:geometricPrecision; text-rendering:geometricPrecision; image-rendering:optimizeQuality; fill-rule:evenodd; clip-rule:evenodd"
viewBox="0 0 72.86 72.86"
 xmlns:xlink="http://www.w3.org/1999/xlink"
 xmlns:xodm="http://www.corel.com/coreldraw/odm/2003">
 <defs>
  <style type="text/css">
   <![CDATA[
    .fil1 {fill:none}
    .fil0 {fill:#9C28B1;fill-rule:nonzero}
   ]]>
  </style>
   <clipPath id="id0">
    <path d="M-0 72.86l72.86 0 0 -72.86 -72.86 0 0 72.86z"/>
   </clipPath>
 </defs>
 <g id="Camada_x0020_1">
  <metadata id="CorelCorpID_0Corel-Layer"/>
  <g>
  </g>
  <g style="clip-path:url(#id0)">
   <g id="_2821554878064">
    <polygon class="fil0" points="19.6,9.8 53.27,9.8 53.27,14.07 19.6,14.07 "/>
    <polygon class="fil0" points="-0,68.59 72.86,68.59 72.86,72.86 -0,72.86 "/>
    <path class="fil0" d="M9.8 58.79l-9.8 0 0 4.27 72.86 0 0 -4.27 -9.8 0 0 -15.33 4.9 0 0 -4.27 -4.9 0 0 -5.86c2.84,-0.91 4.9,-3.57 4.9,-6.7l0 -7.03 -4.9 0 0 -15.33 4.9 0 0 -4.27 -63.06 0 0 4.27 4.9 0 0 15.33 -4.9 0 0 7.03c0,3.13 2.06,5.8 4.9,6.7l0 5.86 -4.9 0 0 4.27 4.9 0 0 15.33zm29.4 0l-5.53 0 0 -15.33 5.53 0 0 15.33zm19.6 -9.8l-5.53 0 0 -5.53 5.53 0 0 5.53zm0 -9.8l-9.8 0 0 14.07 9.8 0 0 5.53 -15.33 0 0 -19.6 -14.07 0 0 19.6 -15.33 0 0 -5.53 9.8 0 0 -14.07 -9.8 0 0 -5.86c1.05,-0.34 1.99,-0.91 2.76,-1.66 1.27,1.23 3,1.99 4.9,1.99 1.9,0 3.63,-0.76 4.9,-1.99 1.27,1.23 3,1.99 4.9,1.99 1.9,0 3.63,-0.76 4.9,-1.99 1.27,1.23 3,1.99 4.9,1.99 1.9,0 3.63,-0.76 4.9,-1.99 1.27,1.23 3,1.99 4.9,1.99 1.9,0 3.63,-0.76 4.9,-1.99 0.77,0.75 1.72,1.33 2.77,1.66l0 5.86 -0 0zm-44.73 9.8l0 -5.53 5.53 0 0 5.53 -5.53 0zm4.9 -22.36l0 -2.77 5.53 0 0 2.77c0,1.52 -1.24,2.77 -2.77,2.77 -1.52,0 -2.76,-1.24 -2.76,-2.77zm9.8 0l0 -2.77 5.53 0 0 2.77c0,1.52 -1.24,2.77 -2.77,2.77 -1.52,0 -2.77,-1.24 -2.77,-2.77zm9.8 0l0 -2.77 5.53 0 0 2.77c0,1.52 -1.24,2.77 -2.76,2.77 -1.52,0 -2.77,-1.24 -2.77,-2.77zm9.8 0l0 -2.77 5.53 0 0 2.77c0,1.52 -1.24,2.77 -2.76,2.77 -1.52,0 -2.77,-1.24 -2.77,-2.77zm15.33 -2.77l0 2.77c0,1.52 -1.24,2.77 -2.76,2.77 -1.52,0 -2.77,-1.24 -2.77,-2.77l0 -2.77 5.53 0zm-49.63 -19.6l44.73 0 0 15.33 -44.73 0 0 -15.33zm-4.9 22.36l0 -2.77 5.53 0 0 2.77c0,1.52 -1.24,2.77 -2.77,2.77 -1.52,0 -2.76,-1.24 -2.76,-2.77z"/>
   </g>
  </g>
  <polygon class="fil1" points="-0,72.86 72.86,72.86 72.86,0 -0,0 "/>
 </g>
</svg>
