<?xml version="1.0" encoding="UTF-8"?>
<!DOCTYPE svg PUBLIC "-//W3C//DTD SVG 1.1//EN" "http://www.w3.org/Graphics/SVG/1.1/DTD/svg11.dtd">
<!-- Creator: CorelDRAW -->
<svg xmlns="http://www.w3.org/2000/svg" xml:space="preserve" width="6.35mm" height="6.35mm" version="1.1" style="shape-rendering:geometricPrecision; text-rendering:geometricPrecision; image-rendering:optimizeQuality; fill-rule:evenodd; clip-rule:evenodd"
viewBox="0 0 487.09 487.09"
 xmlns:xlink="http://www.w3.org/1999/xlink"
 xmlns:xodm="http://www.corel.com/coreldraw/odm/2003">
 <defs>
  <style type="text/css">
   <![CDATA[
    .fil1 {fill:none}
    .fil0 {fill:#9C28B1;fill-rule:nonzero}
   ]]>
  </style>
   <clipPath id="id0">
    <path d="M-0 487.09l487.09 0 0 -487.09 -487.09 0 0 487.09z"/>
   </clipPath>
 </defs>
 <g id="Camada_x0020_1">
  <metadata id="CorelCorpID_0Corel-Layer"/>
  <g>
  </g>
  <g style="clip-path:url(#id0)">
   <g id="_2820759053424">
    <path class="fil0" d="M267.85 118.18l-87.09 0 0 250.72 28.54 0 0 -79.48 58.55 0c46.4,0 84.16,-37.75 84.16,-84.16l0 -2.93c0,-46.4 -37.76,-84.16 -84.16,-84.16zm55.61 87.09c0,30.66 -24.95,55.61 -55.61,55.61l-58.55 0 0 -114.16 58.55 0c30.66,0 55.61,24.95 55.61,55.61l0 2.94z"/>
    <path class="fil0" d="M415.76 71.33c-46,-45.99 -107.16,-71.33 -172.22,-71.33 -65.06,0 -126.21,25.34 -172.22,71.33 -45.99,46 -71.33,107.16 -71.33,172.22 0,65.06 25.34,126.21 71.33,172.22 46,45.99 107.16,71.33 172.22,71.33 65.06,0 126.21,-25.34 172.22,-71.33 45.99,-46 71.33,-107.16 71.33,-172.22 0,-65.06 -25.34,-126.21 -71.33,-172.22zm-20.18 324.25c-40.61,40.61 -94.6,62.97 -152.03,62.97 -57.43,0 -111.43,-22.36 -152.03,-62.97 -40.61,-40.61 -62.97,-94.6 -62.97,-152.03 0,-57.43 22.36,-111.43 62.97,-152.03 40.61,-40.61 94.6,-62.97 152.03,-62.97 57.43,0 111.43,22.36 152.03,62.97 40.61,40.61 62.97,94.6 62.97,152.03 0,57.43 -22.36,111.43 -62.97,152.03z"/>
   </g>
  </g>
  <polygon class="fil1" points="-0,487.09 487.09,487.09 487.09,0 -0,0 "/>
 </g>
</svg>
