<?xml version="1.0" encoding="UTF-8"?>
<!DOCTYPE svg PUBLIC "-//W3C//DTD SVG 1.1//EN" "http://www.w3.org/Graphics/SVG/1.1/DTD/svg11.dtd">
<!-- Creator: CorelDRAW -->
<svg xmlns="http://www.w3.org/2000/svg" xml:space="preserve" width="4.7626mm" height="1.0584mm" version="1.1" style="shape-rendering:geometricPrecision; text-rendering:geometricPrecision; image-rendering:optimizeQuality; fill-rule:evenodd; clip-rule:evenodd"
viewBox="0 0 22.95 5.1"
 xmlns:xlink="http://www.w3.org/1999/xlink"
 xmlns:xodm="http://www.corel.com/coreldraw/odm/2003">
 <defs>
  <style type="text/css">
   <![CDATA[
    .fil0 {fill:#9C28B1}
   ]]>
  </style>
 </defs>
 <g id="Camada_x0020_1">
  <metadata id="CorelCorpID_0Corel-Layer"/>
  <g id="_2821555992784">
   <path class="fil0" d="M-0 2.55c0,-1.41 1.14,-2.55 2.55,-2.55 1.41,0 2.55,1.14 2.55,2.55 0,1.41 -1.14,2.55 -2.55,2.55 -1.41,0 -2.55,-1.14 -2.55,-2.55z"/>
   <path class="fil0" d="M8.93 2.55c0,-1.41 1.14,-2.55 2.55,-2.55 1.41,0 2.55,1.14 2.55,2.55 0,1.41 -1.14,2.55 -2.55,2.55 -1.41,0 -2.55,-1.14 -2.55,-2.55z"/>
   <path class="fil0" d="M17.85 2.55c0,-1.41 1.14,-2.55 2.55,-2.55 1.41,0 2.55,1.14 2.55,2.55 0,1.41 -1.14,2.55 -2.55,2.55 -1.41,0 -2.55,-1.14 -2.55,-2.55z"/>
  </g>
 </g>
</svg>
