<?xml version="1.0" encoding="UTF-8"?>
<!DOCTYPE svg PUBLIC "-//W3C//DTD SVG 1.1//EN" "http://www.w3.org/Graphics/SVG/1.1/DTD/svg11.dtd">
<!-- Creator: CorelDRAW -->
<svg xmlns="http://www.w3.org/2000/svg" xml:space="preserve" width="6.35mm" height="6.35mm" version="1.1" style="shape-rendering:geometricPrecision; text-rendering:geometricPrecision; image-rendering:optimizeQuality; fill-rule:evenodd; clip-rule:evenodd"
viewBox="0 0 51.84 51.84"
 xmlns:xlink="http://www.w3.org/1999/xlink"
 xmlns:xodm="http://www.corel.com/coreldraw/odm/2003">
 <defs>
  <style type="text/css">
   <![CDATA[
    .fil1 {fill:none}
    .fil0 {fill:#9C28B1;fill-rule:nonzero}
   ]]>
  </style>
   <clipPath id="id0">
    <path d="M-0 51.84l51.84 0 0 -51.84 -51.84 0 0 51.84z"/>
   </clipPath>
 </defs>
 <g id="Camada_x0020_1">
  <metadata id="CorelCorpID_0Corel-Layer"/>
  <g>
  </g>
  <g style="clip-path:url(#id0)">
   <g id="_2820761065632">
    <polygon class="fil0" points="13.94,17.68 30.92,17.68 30.92,20.72 13.94,20.72 "/>
    <path class="fil0" d="M41.38 27.98l0 -6.1 3.49 2.09 0 -10.51 -22.43 -13.46 -5.45 3.27 0 -3.27 -10.01 0 0 9.28 -6.97 4.18 0 10.51 3.49 -2.09 0 22.98 25.5 0c1.9,4.11 6.06,6.97 10.88,6.97 6.6,0 11.98,-5.37 11.98,-11.98 0,-6.09 -4.57,-11.13 -10.46,-11.88zm-31.37 -24.94l3.93 0 0 2.06 -3.93 2.36 0 -4.42zm-6.97 12.14l19.39 -11.64 19.39 11.64 0 3.43 -19.39 -11.64 -19.39 11.64 0 -3.43zm3.49 4.88l15.91 -9.55 15.91 9.55 0 7.92c-2.94,0.37 -5.54,1.81 -7.42,3.92l0 -7.5 -16.98 0 0 17.43 -7.42 0 0 -21.77zm21.36 21.77l-10.91 0 0 -14.39 10.91 0 0 14.39zm11.98 6.97c-4.93,0 -8.94,-4.01 -8.94,-8.94 0,-4.93 4.01,-8.94 8.94,-8.94 4.93,0 8.94,4.01 8.94,8.94 0,4.93 -4.01,8.94 -8.94,8.94z"/>
    <polygon class="fil0" points="38.85,40.58 36.19,37.93 34.05,40.07 38.85,44.88 45.67,38.06 43.52,35.91 "/>
   </g>
  </g>
  <polygon class="fil1" points="-0,51.84 51.84,51.84 51.84,0 -0,0 "/>
 </g>
</svg>
