<?xml version="1.0" encoding="UTF-8"?>
<!DOCTYPE svg PUBLIC "-//W3C//DTD SVG 1.1//EN" "http://www.w3.org/Graphics/SVG/1.1/DTD/svg11.dtd">
<!-- Creator: CorelDRAW -->
<svg xmlns="http://www.w3.org/2000/svg" xml:space="preserve" width="6.35mm" height="5.0354mm" version="1.1" style="shape-rendering:geometricPrecision; text-rendering:geometricPrecision; image-rendering:optimizeQuality; fill-rule:evenodd; clip-rule:evenodd"
viewBox="0 0 86.11 68.28"
 xmlns:xlink="http://www.w3.org/1999/xlink"
 xmlns:xodm="http://www.corel.com/coreldraw/odm/2003">
 <defs>
  <style type="text/css">
   <![CDATA[
    .fil0 {fill:#9C28B1;fill-rule:nonzero}
   ]]>
  </style>
 </defs>
 <g id="Camada_x0020_1">
  <metadata id="CorelCorpID_0Corel-Layer"/>
  <path class="fil0" d="M79.21 34.16l0 -24.07c0,-5.57 -4.53,-10.09 -10.09,-10.09l-52.31 0c-5.56,0 -10.09,4.53 -10.09,10.09l0 24.12c-3.91,1.39 -6.73,5.13 -6.73,9.51l0 18.5 6.73 0 0 6.05 6.73 0 0 -6.05 59.2 0 0 6.05 6.73 0 0 -6.05 6.73 0 0 -18.5c0,-4.45 -2.89,-8.23 -6.9,-9.57zm-65.76 -24.07c0,-1.86 1.51,-3.36 3.36,-3.36l52.31 0c1.85,0 3.36,1.51 3.36,3.36l0 23.55 -3.53 0 0 -3.36c0,-5.57 -4.53,-10.09 -10.09,-10.09l-9.08 0c-2.58,0 -4.94,0.98 -6.73,2.58 -1.79,-1.6 -4.14,-2.58 -6.73,-2.58l-9.42 0c-5.56,0 -10.09,4.53 -10.09,10.09l0 3.36 -3.36 0 0 -23.55zm48.77 20.18l0 3.36 -15.81 0 0 -3.36c0,-1.86 1.51,-3.36 3.36,-3.36l9.08 0c1.86,0 3.36,1.51 3.36,3.36zm-22.54 0l0 3.36 -16.15 0 0 -3.36c0,-1.86 1.51,-3.36 3.36,-3.36l9.42 0c1.86,0 3.36,1.51 3.36,3.36zm39.69 25.23l-72.65 0 0 -11.77c0,-1.85 1.51,-3.36 3.36,-3.36l65.93 0c1.85,0 3.36,1.51 3.36,3.36l0 11.77z"/>
 </g>
</svg>
